<mxfile host="app.diagrams.net" modified="2023-10-10T14:21:27.138Z" agent="Mozilla/5.0 (Windows NT 10.0; Win64; x64) AppleWebKit/537.36 (KHTML, like Gecko) Chrome/116.0.5845.967 YaBrowser/23.9.1.967 Yowser/2.5 Safari/537.36" version="22.0.4" etag="UpHugVHHDgsd2o1ooKpM" type="device">
  <diagram id="6twuzLm5iAzyebDN_P44" name="Страница — 1">
    <mxGraphModel dx="2100" dy="1102" grid="1" gridSize="10" guides="1" tooltips="1" connect="1" arrows="1" fold="1" page="1" pageScale="1" pageWidth="3300" pageHeight="2339" math="0" shadow="0">
      <root>
        <mxCell id="0" />
        <mxCell id="1" parent="0" />
        <mxCell id="RMXHGpKho5bCqK_wCiFU-126" value="" style="rounded=0;whiteSpace=wrap;html=1;" vertex="1" parent="1">
          <mxGeometry x="28" y="85" width="3245" height="1760" as="geometry" />
        </mxCell>
        <mxCell id="RMXHGpKho5bCqK_wCiFU-89" style="edgeStyle=orthogonalEdgeStyle;rounded=0;orthogonalLoop=1;jettySize=auto;html=1;exitX=1;exitY=0.5;exitDx=0;exitDy=0;entryX=0.5;entryY=0;entryDx=0;entryDy=0;" edge="1" parent="1" source="RMXHGpKho5bCqK_wCiFU-73" target="RMXHGpKho5bCqK_wCiFU-90">
          <mxGeometry relative="1" as="geometry">
            <mxPoint x="1955" y="462" as="targetPoint" />
          </mxGeometry>
        </mxCell>
        <mxCell id="RMXHGpKho5bCqK_wCiFU-83" value="" style="ellipse;whiteSpace=wrap;html=1;aspect=fixed;" vertex="1" parent="1">
          <mxGeometry x="1320" y="416.25" width="90" height="90" as="geometry" />
        </mxCell>
        <mxCell id="RMXHGpKho5bCqK_wCiFU-82" value="" style="ellipse;whiteSpace=wrap;html=1;aspect=fixed;" vertex="1" parent="1">
          <mxGeometry x="653.75" y="118.75" width="92.5" height="92.5" as="geometry" />
        </mxCell>
        <mxCell id="RMXHGpKho5bCqK_wCiFU-4" value="" style="endArrow=none;html=1;rounded=0;exitX=0;exitY=0.25;exitDx=0;exitDy=0;entryX=1;entryY=0.25;entryDx=0;entryDy=0;" edge="1" parent="1">
          <mxGeometry width="50" height="50" relative="1" as="geometry">
            <mxPoint x="25" y="585" as="sourcePoint" />
            <mxPoint x="3235" y="585" as="targetPoint" />
          </mxGeometry>
        </mxCell>
        <mxCell id="RMXHGpKho5bCqK_wCiFU-5" value="" style="endArrow=none;html=1;rounded=0;exitX=0;exitY=0.25;exitDx=0;exitDy=0;entryX=1;entryY=0.629;entryDx=0;entryDy=0;entryPerimeter=0;" edge="1" parent="1">
          <mxGeometry width="50" height="50" relative="1" as="geometry">
            <mxPoint x="25" y="1090.71" as="sourcePoint" />
            <mxPoint x="3230" y="1075" as="targetPoint" />
          </mxGeometry>
        </mxCell>
        <mxCell id="RMXHGpKho5bCqK_wCiFU-10" value="" style="rounded=0;whiteSpace=wrap;html=1;" vertex="1" parent="1">
          <mxGeometry x="25" y="85" width="75" height="1760" as="geometry" />
        </mxCell>
        <mxCell id="RMXHGpKho5bCqK_wCiFU-12" value="&lt;font style=&quot;font-size: 40px;&quot;&gt;Ответственный за отправку заказов&lt;br&gt;&amp;nbsp;и закупку материалов&lt;br&gt;&lt;/font&gt;" style="text;html=1;strokeColor=none;fillColor=none;align=center;verticalAlign=middle;whiteSpace=wrap;rounded=0;rotation=-90;" vertex="1" parent="1">
          <mxGeometry x="-210" y="1465" width="710" height="36" as="geometry" />
        </mxCell>
        <mxCell id="RMXHGpKho5bCqK_wCiFU-13" value="&lt;font style=&quot;font-size: 40px;&quot;&gt;Вязальщик&lt;br&gt;&lt;/font&gt;" style="text;html=1;strokeColor=none;fillColor=none;align=center;verticalAlign=middle;whiteSpace=wrap;rounded=0;rotation=-90;" vertex="1" parent="1">
          <mxGeometry x="-77.5" y="818" width="425" height="36" as="geometry" />
        </mxCell>
        <mxCell id="RMXHGpKho5bCqK_wCiFU-15" value="&lt;font style=&quot;font-size: 40px;&quot;&gt;SMM-менеджер&lt;br&gt;&lt;/font&gt;" style="text;html=1;strokeColor=none;fillColor=none;align=center;verticalAlign=middle;whiteSpace=wrap;rounded=0;rotation=-90;" vertex="1" parent="1">
          <mxGeometry x="-147.5" y="277.5" width="565" height="36" as="geometry" />
        </mxCell>
        <mxCell id="RMXHGpKho5bCqK_wCiFU-21" value="Получен заказ на вязаного осьминога" style="text;html=1;strokeColor=none;fillColor=none;align=center;verticalAlign=middle;whiteSpace=wrap;rounded=0;" vertex="1" parent="1">
          <mxGeometry x="225" y="80" width="130" height="60" as="geometry" />
        </mxCell>
        <mxCell id="RMXHGpKho5bCqK_wCiFU-22" value="" style="group" vertex="1" connectable="0" parent="1">
          <mxGeometry x="255" y="130" width="70" height="70" as="geometry" />
        </mxCell>
        <mxCell id="RMXHGpKho5bCqK_wCiFU-19" value="" style="ellipse;whiteSpace=wrap;html=1;" vertex="1" parent="RMXHGpKho5bCqK_wCiFU-22">
          <mxGeometry width="70" height="70" as="geometry" />
        </mxCell>
        <mxCell id="RMXHGpKho5bCqK_wCiFU-20" value="" style="shape=message;html=1;html=1;outlineConnect=0;labelPosition=center;verticalLabelPosition=bottom;align=center;verticalAlign=top;" vertex="1" parent="RMXHGpKho5bCqK_wCiFU-22">
          <mxGeometry x="8.75" y="17.5" width="52.5" height="35" as="geometry" />
        </mxCell>
        <mxCell id="RMXHGpKho5bCqK_wCiFU-28" style="edgeStyle=orthogonalEdgeStyle;rounded=0;orthogonalLoop=1;jettySize=auto;html=1;entryX=0;entryY=0.5;entryDx=0;entryDy=0;" edge="1" parent="1" source="RMXHGpKho5bCqK_wCiFU-23" target="RMXHGpKho5bCqK_wCiFU-26">
          <mxGeometry relative="1" as="geometry" />
        </mxCell>
        <mxCell id="RMXHGpKho5bCqK_wCiFU-23" value="проверка наличия готовых осьминогов" style="rounded=1;whiteSpace=wrap;html=1;fontSize=15;" vertex="1" parent="1">
          <mxGeometry x="215" y="625" width="150" height="80" as="geometry" />
        </mxCell>
        <mxCell id="RMXHGpKho5bCqK_wCiFU-25" style="edgeStyle=orthogonalEdgeStyle;rounded=0;orthogonalLoop=1;jettySize=auto;html=1;exitX=0.5;exitY=1;exitDx=0;exitDy=0;" edge="1" parent="1" source="RMXHGpKho5bCqK_wCiFU-19" target="RMXHGpKho5bCqK_wCiFU-23">
          <mxGeometry relative="1" as="geometry">
            <mxPoint x="310" y="621.0000271267361" as="targetPoint" />
            <mxPoint x="290" y="205" as="sourcePoint" />
          </mxGeometry>
        </mxCell>
        <mxCell id="RMXHGpKho5bCqK_wCiFU-37" style="edgeStyle=orthogonalEdgeStyle;rounded=0;orthogonalLoop=1;jettySize=auto;html=1;entryX=0;entryY=0.5;entryDx=0;entryDy=0;" edge="1" parent="1" source="RMXHGpKho5bCqK_wCiFU-26" target="RMXHGpKho5bCqK_wCiFU-36">
          <mxGeometry relative="1" as="geometry" />
        </mxCell>
        <mxCell id="RMXHGpKho5bCqK_wCiFU-43" style="edgeStyle=orthogonalEdgeStyle;rounded=0;orthogonalLoop=1;jettySize=auto;html=1;entryX=0;entryY=0.5;entryDx=0;entryDy=0;" edge="1" parent="1" source="RMXHGpKho5bCqK_wCiFU-26" target="RMXHGpKho5bCqK_wCiFU-42">
          <mxGeometry relative="1" as="geometry" />
        </mxCell>
        <mxCell id="RMXHGpKho5bCqK_wCiFU-26" value="Х" style="ellipse;whiteSpace=wrap;html=1;aspect=fixed;fontSize=18;" vertex="1" parent="1">
          <mxGeometry x="440" y="645" width="40" height="40" as="geometry" />
        </mxCell>
        <mxCell id="RMXHGpKho5bCqK_wCiFU-32" value="" style="group" vertex="1" connectable="0" parent="1">
          <mxGeometry x="480" y="415" width="75" height="75" as="geometry" />
        </mxCell>
        <mxCell id="RMXHGpKho5bCqK_wCiFU-33" value="" style="ellipse;whiteSpace=wrap;html=1;" vertex="1" parent="RMXHGpKho5bCqK_wCiFU-32">
          <mxGeometry width="70" height="70" as="geometry" />
        </mxCell>
        <mxCell id="RMXHGpKho5bCqK_wCiFU-34" value="" style="shape=message;html=1;html=1;outlineConnect=0;labelPosition=center;verticalLabelPosition=bottom;align=center;verticalAlign=top;" vertex="1" parent="RMXHGpKho5bCqK_wCiFU-32">
          <mxGeometry x="8.75" y="17.5" width="52.5" height="35" as="geometry" />
        </mxCell>
        <mxCell id="RMXHGpKho5bCqK_wCiFU-36" value="" style="ellipse;whiteSpace=wrap;html=1;aspect=fixed;fillColor=none;" vertex="1" parent="RMXHGpKho5bCqK_wCiFU-32">
          <mxGeometry x="-5" y="-5" width="80" height="80" as="geometry" />
        </mxCell>
        <mxCell id="RMXHGpKho5bCqK_wCiFU-38" value="осьминогов нет в наличии" style="text;html=1;strokeColor=none;fillColor=none;align=center;verticalAlign=middle;whiteSpace=wrap;rounded=0;" vertex="1" parent="1">
          <mxGeometry x="480" y="515" width="60" height="30" as="geometry" />
        </mxCell>
        <mxCell id="RMXHGpKho5bCqK_wCiFU-39" value="" style="group" vertex="1" connectable="0" parent="1">
          <mxGeometry x="480" y="125" width="75" height="75" as="geometry" />
        </mxCell>
        <mxCell id="RMXHGpKho5bCqK_wCiFU-40" value="" style="ellipse;whiteSpace=wrap;html=1;" vertex="1" parent="RMXHGpKho5bCqK_wCiFU-39">
          <mxGeometry width="70" height="70" as="geometry" />
        </mxCell>
        <mxCell id="RMXHGpKho5bCqK_wCiFU-41" value="" style="shape=message;html=1;html=1;outlineConnect=0;labelPosition=center;verticalLabelPosition=bottom;align=center;verticalAlign=top;" vertex="1" parent="RMXHGpKho5bCqK_wCiFU-39">
          <mxGeometry x="8.75" y="17.5" width="52.5" height="35" as="geometry" />
        </mxCell>
        <mxCell id="RMXHGpKho5bCqK_wCiFU-42" value="" style="ellipse;whiteSpace=wrap;html=1;aspect=fixed;fillColor=none;" vertex="1" parent="RMXHGpKho5bCqK_wCiFU-39">
          <mxGeometry x="-5" y="-5" width="80" height="80" as="geometry" />
        </mxCell>
        <mxCell id="RMXHGpKho5bCqK_wCiFU-44" value="осьминог есть в наличии" style="text;html=1;strokeColor=none;fillColor=none;align=center;verticalAlign=middle;whiteSpace=wrap;rounded=0;" vertex="1" parent="1">
          <mxGeometry x="460" y="225" width="60" height="30" as="geometry" />
        </mxCell>
        <mxCell id="RMXHGpKho5bCqK_wCiFU-109" value="" style="edgeStyle=orthogonalEdgeStyle;rounded=0;orthogonalLoop=1;jettySize=auto;html=1;" edge="1" parent="1" source="RMXHGpKho5bCqK_wCiFU-45" target="RMXHGpKho5bCqK_wCiFU-108">
          <mxGeometry relative="1" as="geometry" />
        </mxCell>
        <mxCell id="RMXHGpKho5bCqK_wCiFU-45" value="уведомить клиента, что осьминога нет в наличии и время ожидания увеличивается" style="rounded=1;whiteSpace=wrap;html=1;" vertex="1" parent="1">
          <mxGeometry x="880" y="409.38" width="150" height="83.75" as="geometry" />
        </mxCell>
        <mxCell id="RMXHGpKho5bCqK_wCiFU-51" value="" style="edgeStyle=orthogonalEdgeStyle;rounded=0;orthogonalLoop=1;jettySize=auto;html=1;" edge="1" parent="1" source="RMXHGpKho5bCqK_wCiFU-47" target="RMXHGpKho5bCqK_wCiFU-50">
          <mxGeometry relative="1" as="geometry" />
        </mxCell>
        <mxCell id="RMXHGpKho5bCqK_wCiFU-47" value="проверка наличия необходимых материалов" style="rounded=1;whiteSpace=wrap;html=1;" vertex="1" parent="1">
          <mxGeometry x="1425" y="635" width="130" height="70" as="geometry" />
        </mxCell>
        <mxCell id="RMXHGpKho5bCqK_wCiFU-55" style="edgeStyle=orthogonalEdgeStyle;rounded=0;orthogonalLoop=1;jettySize=auto;html=1;entryX=0.5;entryY=0;entryDx=0;entryDy=0;" edge="1" parent="1" source="RMXHGpKho5bCqK_wCiFU-50" target="RMXHGpKho5bCqK_wCiFU-54">
          <mxGeometry relative="1" as="geometry" />
        </mxCell>
        <mxCell id="RMXHGpKho5bCqK_wCiFU-57" style="edgeStyle=orthogonalEdgeStyle;rounded=0;orthogonalLoop=1;jettySize=auto;html=1;entryX=0.5;entryY=0;entryDx=0;entryDy=0;" edge="1" parent="1" source="RMXHGpKho5bCqK_wCiFU-50" target="RMXHGpKho5bCqK_wCiFU-56">
          <mxGeometry relative="1" as="geometry" />
        </mxCell>
        <mxCell id="RMXHGpKho5bCqK_wCiFU-50" value="Х" style="ellipse;whiteSpace=wrap;html=1;aspect=fixed;fontSize=18;" vertex="1" parent="1">
          <mxGeometry x="1635" y="650" width="40" height="40" as="geometry" />
        </mxCell>
        <mxCell id="RMXHGpKho5bCqK_wCiFU-92" style="edgeStyle=orthogonalEdgeStyle;rounded=0;orthogonalLoop=1;jettySize=auto;html=1;entryX=0.5;entryY=1;entryDx=0;entryDy=0;" edge="1" parent="1" source="RMXHGpKho5bCqK_wCiFU-52" target="RMXHGpKho5bCqK_wCiFU-90">
          <mxGeometry relative="1" as="geometry">
            <Array as="points">
              <mxPoint x="1915" y="635" />
              <mxPoint x="1975" y="635" />
            </Array>
          </mxGeometry>
        </mxCell>
        <mxCell id="RMXHGpKho5bCqK_wCiFU-52" value="изготовление осьминога" style="rounded=1;whiteSpace=wrap;html=1;" vertex="1" parent="1">
          <mxGeometry x="1855" y="715" width="120" height="60" as="geometry" />
        </mxCell>
        <mxCell id="RMXHGpKho5bCqK_wCiFU-58" style="edgeStyle=orthogonalEdgeStyle;rounded=0;orthogonalLoop=1;jettySize=auto;html=1;entryX=0.5;entryY=1;entryDx=0;entryDy=0;" edge="1" parent="1" source="RMXHGpKho5bCqK_wCiFU-54" target="RMXHGpKho5bCqK_wCiFU-56">
          <mxGeometry relative="1" as="geometry" />
        </mxCell>
        <mxCell id="RMXHGpKho5bCqK_wCiFU-54" value="закупить материалы" style="rounded=1;whiteSpace=wrap;html=1;" vertex="1" parent="1">
          <mxGeometry x="1595" y="1305" width="120" height="60" as="geometry" />
        </mxCell>
        <mxCell id="RMXHGpKho5bCqK_wCiFU-60" value="" style="edgeStyle=orthogonalEdgeStyle;rounded=0;orthogonalLoop=1;jettySize=auto;html=1;" edge="1" parent="1" source="RMXHGpKho5bCqK_wCiFU-56" target="RMXHGpKho5bCqK_wCiFU-52">
          <mxGeometry relative="1" as="geometry" />
        </mxCell>
        <mxCell id="RMXHGpKho5bCqK_wCiFU-56" value="О" style="ellipse;whiteSpace=wrap;html=1;aspect=fixed;fontSize=18;" vertex="1" parent="1">
          <mxGeometry x="1745" y="725" width="40" height="40" as="geometry" />
        </mxCell>
        <mxCell id="RMXHGpKho5bCqK_wCiFU-85" style="edgeStyle=orthogonalEdgeStyle;rounded=0;orthogonalLoop=1;jettySize=auto;html=1;entryX=0.5;entryY=0;entryDx=0;entryDy=0;" edge="1" parent="1" source="RMXHGpKho5bCqK_wCiFU-61" target="RMXHGpKho5bCqK_wCiFU-47">
          <mxGeometry relative="1" as="geometry">
            <Array as="points">
              <mxPoint x="1490" y="475" />
            </Array>
          </mxGeometry>
        </mxCell>
        <mxCell id="RMXHGpKho5bCqK_wCiFU-61" value="" style="ellipse;whiteSpace=wrap;html=1;aspect=fixed;" vertex="1" parent="1">
          <mxGeometry x="1325" y="421.25" width="80" height="80" as="geometry" />
        </mxCell>
        <mxCell id="RMXHGpKho5bCqK_wCiFU-62" value="" style="verticalLabelPosition=bottom;verticalAlign=top;html=1;shape=mxgraph.basic.patternFillRect;fillStyle=grid;step=5;fillStrokeWidth=0.2;fillStrokeColor=#dddddd;" vertex="1" parent="1">
          <mxGeometry x="1345" y="431.25" width="40" height="60" as="geometry" />
        </mxCell>
        <mxCell id="RMXHGpKho5bCqK_wCiFU-63" value="" style="endArrow=none;html=1;rounded=0;" edge="1" parent="1">
          <mxGeometry width="50" height="50" relative="1" as="geometry">
            <mxPoint x="1355" y="440" as="sourcePoint" />
            <mxPoint x="1375" y="440" as="targetPoint" />
            <Array as="points">
              <mxPoint x="1365" y="440" />
            </Array>
          </mxGeometry>
        </mxCell>
        <mxCell id="RMXHGpKho5bCqK_wCiFU-64" value="" style="endArrow=none;html=1;rounded=0;" edge="1" parent="1">
          <mxGeometry width="50" height="50" relative="1" as="geometry">
            <mxPoint x="1355" y="450" as="sourcePoint" />
            <mxPoint x="1375" y="450" as="targetPoint" />
            <Array as="points">
              <mxPoint x="1365" y="450" />
            </Array>
          </mxGeometry>
        </mxCell>
        <mxCell id="RMXHGpKho5bCqK_wCiFU-65" value="" style="endArrow=none;html=1;rounded=0;" edge="1" parent="1">
          <mxGeometry width="50" height="50" relative="1" as="geometry">
            <mxPoint x="1355" y="461.16999999999996" as="sourcePoint" />
            <mxPoint x="1375" y="461.16999999999996" as="targetPoint" />
            <Array as="points">
              <mxPoint x="1365" y="461.16999999999996" />
            </Array>
          </mxGeometry>
        </mxCell>
        <mxCell id="RMXHGpKho5bCqK_wCiFU-66" value="" style="endArrow=none;html=1;rounded=0;" edge="1" parent="1">
          <mxGeometry width="50" height="50" relative="1" as="geometry">
            <mxPoint x="1355" y="470" as="sourcePoint" />
            <mxPoint x="1375" y="470" as="targetPoint" />
            <Array as="points">
              <mxPoint x="1365" y="470" />
            </Array>
          </mxGeometry>
        </mxCell>
        <mxCell id="RMXHGpKho5bCqK_wCiFU-67" value="" style="endArrow=none;html=1;rounded=0;" edge="1" parent="1">
          <mxGeometry width="50" height="50" relative="1" as="geometry">
            <mxPoint x="1355" y="480" as="sourcePoint" />
            <mxPoint x="1375" y="480" as="targetPoint" />
            <Array as="points">
              <mxPoint x="1365" y="480" />
            </Array>
          </mxGeometry>
        </mxCell>
        <mxCell id="RMXHGpKho5bCqK_wCiFU-68" value="дождаться оплаты заказа" style="text;html=1;strokeColor=none;fillColor=none;align=center;verticalAlign=middle;whiteSpace=wrap;rounded=0;" vertex="1" parent="1">
          <mxGeometry x="1335" y="510" width="60" height="30" as="geometry" />
        </mxCell>
        <mxCell id="RMXHGpKho5bCqK_wCiFU-72" value="клиент согласен &lt;br&gt;подождать" style="text;html=1;align=center;verticalAlign=middle;resizable=0;points=[];autosize=1;strokeColor=none;fillColor=none;" vertex="1" parent="1">
          <mxGeometry x="1180" y="416.25" width="110" height="40" as="geometry" />
        </mxCell>
        <mxCell id="RMXHGpKho5bCqK_wCiFU-73" value="" style="ellipse;whiteSpace=wrap;html=1;aspect=fixed;" vertex="1" parent="1">
          <mxGeometry x="660" y="125" width="80" height="80" as="geometry" />
        </mxCell>
        <mxCell id="RMXHGpKho5bCqK_wCiFU-74" value="" style="verticalLabelPosition=bottom;verticalAlign=top;html=1;shape=mxgraph.basic.patternFillRect;fillStyle=grid;step=5;fillStrokeWidth=0.2;fillStrokeColor=#dddddd;" vertex="1" parent="1">
          <mxGeometry x="680" y="135" width="40" height="60" as="geometry" />
        </mxCell>
        <mxCell id="RMXHGpKho5bCqK_wCiFU-75" value="" style="endArrow=none;html=1;rounded=0;" edge="1" parent="1">
          <mxGeometry width="50" height="50" relative="1" as="geometry">
            <mxPoint x="690" y="143.75" as="sourcePoint" />
            <mxPoint x="710" y="143.75" as="targetPoint" />
            <Array as="points">
              <mxPoint x="700" y="143.75" />
            </Array>
          </mxGeometry>
        </mxCell>
        <mxCell id="RMXHGpKho5bCqK_wCiFU-76" value="" style="endArrow=none;html=1;rounded=0;" edge="1" parent="1">
          <mxGeometry width="50" height="50" relative="1" as="geometry">
            <mxPoint x="690" y="153.75" as="sourcePoint" />
            <mxPoint x="710" y="153.75" as="targetPoint" />
            <Array as="points">
              <mxPoint x="700" y="153.75" />
            </Array>
          </mxGeometry>
        </mxCell>
        <mxCell id="RMXHGpKho5bCqK_wCiFU-77" value="" style="endArrow=none;html=1;rounded=0;" edge="1" parent="1">
          <mxGeometry width="50" height="50" relative="1" as="geometry">
            <mxPoint x="690" y="164.91999999999996" as="sourcePoint" />
            <mxPoint x="710" y="164.91999999999996" as="targetPoint" />
            <Array as="points">
              <mxPoint x="700" y="164.91999999999996" />
            </Array>
          </mxGeometry>
        </mxCell>
        <mxCell id="RMXHGpKho5bCqK_wCiFU-78" value="" style="endArrow=none;html=1;rounded=0;" edge="1" parent="1">
          <mxGeometry width="50" height="50" relative="1" as="geometry">
            <mxPoint x="690" y="173.75" as="sourcePoint" />
            <mxPoint x="710" y="173.75" as="targetPoint" />
            <Array as="points">
              <mxPoint x="700" y="173.75" />
            </Array>
          </mxGeometry>
        </mxCell>
        <mxCell id="RMXHGpKho5bCqK_wCiFU-79" value="" style="endArrow=none;html=1;rounded=0;" edge="1" parent="1">
          <mxGeometry width="50" height="50" relative="1" as="geometry">
            <mxPoint x="690" y="183.75" as="sourcePoint" />
            <mxPoint x="710" y="183.75" as="targetPoint" />
            <Array as="points">
              <mxPoint x="700" y="183.75" />
            </Array>
          </mxGeometry>
        </mxCell>
        <mxCell id="RMXHGpKho5bCqK_wCiFU-80" value="дождаться оплаты заказа" style="text;html=1;strokeColor=none;fillColor=none;align=center;verticalAlign=middle;whiteSpace=wrap;rounded=0;" vertex="1" parent="1">
          <mxGeometry x="670" y="213.75" width="60" height="30" as="geometry" />
        </mxCell>
        <mxCell id="RMXHGpKho5bCqK_wCiFU-81" style="edgeStyle=orthogonalEdgeStyle;rounded=0;orthogonalLoop=1;jettySize=auto;html=1;entryX=0;entryY=0.5;entryDx=0;entryDy=0;" edge="1" parent="1" source="RMXHGpKho5bCqK_wCiFU-42" target="RMXHGpKho5bCqK_wCiFU-82">
          <mxGeometry relative="1" as="geometry">
            <mxPoint x="650" y="160" as="targetPoint" />
          </mxGeometry>
        </mxCell>
        <mxCell id="RMXHGpKho5bCqK_wCiFU-86" value="материалов нет в наличии" style="text;html=1;strokeColor=none;fillColor=none;align=center;verticalAlign=middle;whiteSpace=wrap;rounded=0;" vertex="1" parent="1">
          <mxGeometry x="1555" y="864" width="100" height="30" as="geometry" />
        </mxCell>
        <mxCell id="RMXHGpKho5bCqK_wCiFU-87" value="материалы есть в наличии" style="text;html=1;strokeColor=none;fillColor=none;align=center;verticalAlign=middle;whiteSpace=wrap;rounded=0;" vertex="1" parent="1">
          <mxGeometry x="1705" y="635" width="120" height="30" as="geometry" />
        </mxCell>
        <mxCell id="RMXHGpKho5bCqK_wCiFU-102" value="" style="edgeStyle=orthogonalEdgeStyle;rounded=0;orthogonalLoop=1;jettySize=auto;html=1;exitX=0.999;exitY=0.474;exitDx=0;exitDy=0;exitPerimeter=0;" edge="1" parent="1" source="RMXHGpKho5bCqK_wCiFU-88" target="RMXHGpKho5bCqK_wCiFU-93">
          <mxGeometry relative="1" as="geometry" />
        </mxCell>
        <mxCell id="RMXHGpKho5bCqK_wCiFU-88" value="уточнение информации о клиенте для отправки посылки" style="rounded=1;whiteSpace=wrap;html=1;" vertex="1" parent="1">
          <mxGeometry x="2095" y="425.63" width="140" height="73.75" as="geometry" />
        </mxCell>
        <mxCell id="RMXHGpKho5bCqK_wCiFU-91" value="" style="edgeStyle=orthogonalEdgeStyle;rounded=0;orthogonalLoop=1;jettySize=auto;html=1;" edge="1" parent="1" source="RMXHGpKho5bCqK_wCiFU-90" target="RMXHGpKho5bCqK_wCiFU-88">
          <mxGeometry relative="1" as="geometry" />
        </mxCell>
        <mxCell id="RMXHGpKho5bCqK_wCiFU-90" value="О" style="ellipse;whiteSpace=wrap;html=1;aspect=fixed;fontSize=18;" vertex="1" parent="1">
          <mxGeometry x="1955" y="442.51" width="40" height="40" as="geometry" />
        </mxCell>
        <mxCell id="RMXHGpKho5bCqK_wCiFU-93" value="" style="ellipse;whiteSpace=wrap;html=1;aspect=fixed;" vertex="1" parent="1">
          <mxGeometry x="2355" y="416.25" width="90" height="90" as="geometry" />
        </mxCell>
        <mxCell id="RMXHGpKho5bCqK_wCiFU-105" style="edgeStyle=orthogonalEdgeStyle;rounded=0;orthogonalLoop=1;jettySize=auto;html=1;entryX=0.5;entryY=0;entryDx=0;entryDy=0;" edge="1" parent="1" source="RMXHGpKho5bCqK_wCiFU-94" target="RMXHGpKho5bCqK_wCiFU-103">
          <mxGeometry relative="1" as="geometry" />
        </mxCell>
        <mxCell id="RMXHGpKho5bCqK_wCiFU-94" value="" style="ellipse;whiteSpace=wrap;html=1;aspect=fixed;" vertex="1" parent="1">
          <mxGeometry x="2360" y="421.25" width="80" height="80" as="geometry" />
        </mxCell>
        <mxCell id="RMXHGpKho5bCqK_wCiFU-95" value="" style="verticalLabelPosition=bottom;verticalAlign=top;html=1;shape=mxgraph.basic.patternFillRect;fillStyle=grid;step=5;fillStrokeWidth=0.2;fillStrokeColor=#dddddd;" vertex="1" parent="1">
          <mxGeometry x="2380" y="431.25" width="40" height="60" as="geometry" />
        </mxCell>
        <mxCell id="RMXHGpKho5bCqK_wCiFU-96" value="" style="endArrow=none;html=1;rounded=0;" edge="1" parent="1">
          <mxGeometry width="50" height="50" relative="1" as="geometry">
            <mxPoint x="2390" y="440" as="sourcePoint" />
            <mxPoint x="2410" y="440" as="targetPoint" />
            <Array as="points">
              <mxPoint x="2400" y="440" />
            </Array>
          </mxGeometry>
        </mxCell>
        <mxCell id="RMXHGpKho5bCqK_wCiFU-97" value="" style="endArrow=none;html=1;rounded=0;" edge="1" parent="1">
          <mxGeometry width="50" height="50" relative="1" as="geometry">
            <mxPoint x="2390" y="450" as="sourcePoint" />
            <mxPoint x="2410" y="450" as="targetPoint" />
            <Array as="points">
              <mxPoint x="2400" y="450" />
            </Array>
          </mxGeometry>
        </mxCell>
        <mxCell id="RMXHGpKho5bCqK_wCiFU-98" value="" style="endArrow=none;html=1;rounded=0;" edge="1" parent="1">
          <mxGeometry width="50" height="50" relative="1" as="geometry">
            <mxPoint x="2390" y="461.16999999999996" as="sourcePoint" />
            <mxPoint x="2410" y="461.16999999999996" as="targetPoint" />
            <Array as="points">
              <mxPoint x="2400" y="461.16999999999996" />
            </Array>
          </mxGeometry>
        </mxCell>
        <mxCell id="RMXHGpKho5bCqK_wCiFU-99" value="" style="endArrow=none;html=1;rounded=0;" edge="1" parent="1">
          <mxGeometry width="50" height="50" relative="1" as="geometry">
            <mxPoint x="2390" y="470" as="sourcePoint" />
            <mxPoint x="2410" y="470" as="targetPoint" />
            <Array as="points">
              <mxPoint x="2400" y="470" />
            </Array>
          </mxGeometry>
        </mxCell>
        <mxCell id="RMXHGpKho5bCqK_wCiFU-100" value="" style="endArrow=none;html=1;rounded=0;" edge="1" parent="1">
          <mxGeometry width="50" height="50" relative="1" as="geometry">
            <mxPoint x="2390" y="480" as="sourcePoint" />
            <mxPoint x="2410" y="480" as="targetPoint" />
            <Array as="points">
              <mxPoint x="2400" y="480" />
            </Array>
          </mxGeometry>
        </mxCell>
        <mxCell id="RMXHGpKho5bCqK_wCiFU-101" value="дождаться получения информации" style="text;html=1;strokeColor=none;fillColor=none;align=center;verticalAlign=middle;whiteSpace=wrap;rounded=0;" vertex="1" parent="1">
          <mxGeometry x="2370" y="375" width="60" height="30" as="geometry" />
        </mxCell>
        <mxCell id="RMXHGpKho5bCqK_wCiFU-107" style="edgeStyle=orthogonalEdgeStyle;rounded=0;orthogonalLoop=1;jettySize=auto;html=1;entryX=0;entryY=0.5;entryDx=0;entryDy=0;" edge="1" parent="1" source="RMXHGpKho5bCqK_wCiFU-103">
          <mxGeometry relative="1" as="geometry">
            <mxPoint x="2645" y="461.25" as="targetPoint" />
          </mxGeometry>
        </mxCell>
        <mxCell id="RMXHGpKho5bCqK_wCiFU-103" value="отправка осьминога" style="rounded=1;whiteSpace=wrap;html=1;" vertex="1" parent="1">
          <mxGeometry x="2340" y="1305" width="120" height="60" as="geometry" />
        </mxCell>
        <mxCell id="RMXHGpKho5bCqK_wCiFU-130" style="edgeStyle=orthogonalEdgeStyle;rounded=0;orthogonalLoop=1;jettySize=auto;html=1;entryX=0;entryY=0.5;entryDx=0;entryDy=0;" edge="1" parent="1" source="RMXHGpKho5bCqK_wCiFU-106" target="RMXHGpKho5bCqK_wCiFU-127">
          <mxGeometry relative="1" as="geometry" />
        </mxCell>
        <mxCell id="RMXHGpKho5bCqK_wCiFU-106" value="получение и обработка фидбека" style="rounded=1;whiteSpace=wrap;html=1;" vertex="1" parent="1">
          <mxGeometry x="2590" y="396.25" width="120" height="60" as="geometry" />
        </mxCell>
        <mxCell id="RMXHGpKho5bCqK_wCiFU-111" style="edgeStyle=orthogonalEdgeStyle;rounded=0;orthogonalLoop=1;jettySize=auto;html=1;entryX=0;entryY=0.5;entryDx=0;entryDy=0;" edge="1" parent="1" source="RMXHGpKho5bCqK_wCiFU-108" target="RMXHGpKho5bCqK_wCiFU-83">
          <mxGeometry relative="1" as="geometry" />
        </mxCell>
        <mxCell id="RMXHGpKho5bCqK_wCiFU-115" style="edgeStyle=orthogonalEdgeStyle;rounded=0;orthogonalLoop=1;jettySize=auto;html=1;entryX=0;entryY=0.5;entryDx=0;entryDy=0;" edge="1" parent="1" source="RMXHGpKho5bCqK_wCiFU-108" target="RMXHGpKho5bCqK_wCiFU-113">
          <mxGeometry relative="1" as="geometry">
            <mxPoint x="1260" y="275" as="targetPoint" />
            <Array as="points">
              <mxPoint x="1120" y="320" />
            </Array>
          </mxGeometry>
        </mxCell>
        <mxCell id="RMXHGpKho5bCqK_wCiFU-108" value="Х" style="ellipse;whiteSpace=wrap;html=1;aspect=fixed;fontSize=18;" vertex="1" parent="1">
          <mxGeometry x="1100" y="431.25" width="40" height="40" as="geometry" />
        </mxCell>
        <mxCell id="RMXHGpKho5bCqK_wCiFU-116" value="" style="group" vertex="1" connectable="0" parent="1">
          <mxGeometry x="1160" y="295" width="50" height="51.25" as="geometry" />
        </mxCell>
        <mxCell id="RMXHGpKho5bCqK_wCiFU-113" value="" style="ellipse;whiteSpace=wrap;html=1;aspect=fixed;fillColor=#000000;" vertex="1" parent="RMXHGpKho5bCqK_wCiFU-116">
          <mxGeometry width="50" height="50" as="geometry" />
        </mxCell>
        <mxCell id="RMXHGpKho5bCqK_wCiFU-112" value="" style="ellipse;whiteSpace=wrap;html=1;aspect=fixed;fontSize=18;" vertex="1" parent="RMXHGpKho5bCqK_wCiFU-116">
          <mxGeometry x="4.226153846153847" y="4.852307692307693" width="41.53846153846154" height="41.53846153846154" as="geometry" />
        </mxCell>
        <mxCell id="RMXHGpKho5bCqK_wCiFU-114" value="" style="verticalLabelPosition=bottom;verticalAlign=top;html=1;shape=mxgraph.basic.flash;rotation=45;fillColor=#000000;" vertex="1" parent="RMXHGpKho5bCqK_wCiFU-116">
          <mxGeometry x="18.841538461538462" y="13.525384615384615" width="12.307692307692308" height="25.23076923076923" as="geometry" />
        </mxCell>
        <mxCell id="RMXHGpKho5bCqK_wCiFU-117" value="клиент&lt;br&gt;отказался" style="text;html=1;strokeColor=none;fillColor=none;align=center;verticalAlign=middle;whiteSpace=wrap;rounded=0;" vertex="1" parent="1">
          <mxGeometry x="1060" y="325" width="60" height="30" as="geometry" />
        </mxCell>
        <mxCell id="RMXHGpKho5bCqK_wCiFU-121" style="edgeStyle=orthogonalEdgeStyle;rounded=0;orthogonalLoop=1;jettySize=auto;html=1;entryX=0.004;entryY=0.481;entryDx=0;entryDy=0;entryPerimeter=0;" edge="1" parent="1" source="RMXHGpKho5bCqK_wCiFU-119" target="RMXHGpKho5bCqK_wCiFU-45">
          <mxGeometry relative="1" as="geometry" />
        </mxCell>
        <mxCell id="RMXHGpKho5bCqK_wCiFU-123" style="edgeStyle=orthogonalEdgeStyle;rounded=0;orthogonalLoop=1;jettySize=auto;html=1;entryX=0;entryY=0.5;entryDx=0;entryDy=0;" edge="1" parent="1" source="RMXHGpKho5bCqK_wCiFU-119" target="RMXHGpKho5bCqK_wCiFU-122">
          <mxGeometry relative="1" as="geometry">
            <Array as="points">
              <mxPoint x="710" y="316" />
            </Array>
          </mxGeometry>
        </mxCell>
        <mxCell id="RMXHGpKho5bCqK_wCiFU-119" value="&lt;font style=&quot;font-size: 24px;&quot;&gt;&lt;b&gt;+&lt;/b&gt;&lt;/font&gt;" style="ellipse;whiteSpace=wrap;html=1;aspect=fixed;fontSize=18;" vertex="1" parent="1">
          <mxGeometry x="690" y="430" width="40" height="40" as="geometry" />
        </mxCell>
        <mxCell id="RMXHGpKho5bCqK_wCiFU-120" style="edgeStyle=orthogonalEdgeStyle;rounded=0;orthogonalLoop=1;jettySize=auto;html=1;entryX=0;entryY=0.5;entryDx=0;entryDy=0;" edge="1" parent="1" source="RMXHGpKho5bCqK_wCiFU-36" target="RMXHGpKho5bCqK_wCiFU-119">
          <mxGeometry relative="1" as="geometry" />
        </mxCell>
        <mxCell id="RMXHGpKho5bCqK_wCiFU-122" value="обновить наличие в соцсетях" style="rounded=1;whiteSpace=wrap;html=1;" vertex="1" parent="1">
          <mxGeometry x="880" y="286.25" width="120" height="60" as="geometry" />
        </mxCell>
        <mxCell id="RMXHGpKho5bCqK_wCiFU-129" value="" style="group" vertex="1" connectable="0" parent="1">
          <mxGeometry x="2870" y="370" width="110" height="110" as="geometry" />
        </mxCell>
        <mxCell id="RMXHGpKho5bCqK_wCiFU-127" value="" style="ellipse;whiteSpace=wrap;html=1;aspect=fixed;fillColor=#000000;" vertex="1" parent="RMXHGpKho5bCqK_wCiFU-129">
          <mxGeometry width="105.87500000000001" height="105.87500000000001" as="geometry" />
        </mxCell>
        <mxCell id="RMXHGpKho5bCqK_wCiFU-128" value="клиент получил заказ и всем доволен" style="ellipse;whiteSpace=wrap;html=1;aspect=fixed;" vertex="1" parent="RMXHGpKho5bCqK_wCiFU-129">
          <mxGeometry x="6.875000000000001" y="6.875" width="92.64062500000001" height="92.64062500000001" as="geometry" />
        </mxCell>
      </root>
    </mxGraphModel>
  </diagram>
</mxfile>
